<?xml version="1.0" encoding="UTF-8"?>
<svg id="Layer_1" xmlns="http://www.w3.org/2000/svg" viewBox="0 0 37.55 90">
  <defs>
    <style>
      .cls-1 {
        fill: #fff;
      }
    </style>
  </defs>
  <path class="cls-1" d="M6.18,84.29c-1.64-.33-3.76.47-4.06-2.15-.24-2.1.53-2.87,4.44-4.22-.86-9.2-1.7-18.42-4.06-27.42-.61-2.31-1.15-4.64-1.54-6.99-.12-.71.17-1.67.61-2.26,6.82-8.98,12.34-18.56,14.07-29.92.39-2.53.51-5.09.74-7.64.11-1.27.49-2.17,2.05-2.11,1.49.06,2.38.67,2.52,2.19.26,2.71.37,5.45.77,8.14,1.09,7.3,3.68,14.05,7.82,20.18,2.04,3.01,4.04,6.06,6.14,9.03.93,1.32,1.18,2.6.63,4.13-2.69,7.5-3.64,15.37-4.79,23.18-.46,3.14-.45,6.34-.65,9.61.77.2,1.42.33,2.05.53,1.56.48,2.12,1.68,2.01,3.17-.1,1.41-.87,2.35-2.4,2.38-1.1.02-1.59.44-1.61,1.63-.03,1.63-1.05,2.49-2.65,2.51-6.2.08-12.41.17-18.61.16-2.25,0-2.58-.52-3.48-4.12ZM23.07,24.91c2.02,3.31,3.96,6.68,6.09,9.92,1.85,2.82,3.91,5.51,5.87,8.25-.15.72-.19,1.48-.46,2.15-1.83,4.55-2.88,9.29-3.49,14.14-.7,5.63-1.44,11.25-2.13,16.88-.06.51.05,1.04.08,1.55.42-.21.52-.45.53-.7.69-11.11,2.3-22.06,5.64-32.71.12-.37-.13-.85-.21-1.29-.88-1.55-1.66-3.16-2.65-4.63-4.05-5.99-8.26-11.88-10.14-19.02-.63-2.39-1.24-4.78-1.86-7.17-.25-2.71-.47-5.43-.77-8.13-.04-.39-.5-.73-.77-1.09-.29.38-.77.73-.83,1.15-.58,3.58-.88,7.22-1.64,10.77-2.21,10.23-7.5,18.96-13.59,27.29-.34.46-.53,1.23-.43,1.78.52,2.67,1.16,5.31,1.78,7.96,1.92,8.25,3.33,16.58,3.68,25.07,0,.2.18.39.27.58-.06-11.8-2.34-23.22-5.22-34.55.2-.04.39-.08.59-.13.99,4.18,1.98,8.36,2.97,12.53-.08-1.12,0-2.33-.29-3.45-1.12-4.28-.75-8.16,2.66-11.36.12-.11.21-.27.31-.41,5.19-7.57,9.97-15.21,9.08-25.07-.32-3.52.33-7.12.53-10.69.31.75.31,1.48.31,2.22,0,5.12-.08,10.24.08,15.35.06,1.76.38,3.71,1.22,5.22,2.34,4.22,4.99,8.26,7.56,12.35.31.49.83.85,1.25,1.27.12-.45-.04-.6-.14-.78-1.54-2.91-3.07-5.82-4.6-8.72.73,1.03,1.46,2.06,2.18,3.09.19-.09.38-.18.57-.27-.2-.76-.3-1.56-.63-2.27-1.09-2.38-2.26-4.73-3.41-7.09ZM18.5,26.02s0,0,0,0c.03-.21.06-.42.1-.63-2.66,6.91-6.7,12.93-11.02,18.82-.67.91-1.11,2.33-.98,3.43.62,5.06,1.54,10.08,2.24,15.13.4,2.86.59,5.75.88,8.63-.1.01-.21.02-.31.03-.75-5.91-1.5-11.81-2.24-17.72-.18.02-.37.05-.55.07.93,7.75,1.87,15.5,2.84,23.59.34-.68.52-1.05.5-1.01.69.44,1.36,1.21,2.04,1.22,4.99.1,9.98.06,14.97.06,0-.2,0-.41,0-.61h-9.39c0-.16,0-.32,0-.48h5.88c0-.12,0-.25,0-.37h-6.19c0-.08,0-.15,0-.23,2.31-.19,4.62-.38,6.93-.57,0-.09,0-.18,0-.27h-6.91c0-.07,0-.14.01-.21,2.2-.16,4.4-.32,6.61-.48,0-.09,0-.18,0-.28h-6.07c0-.09,0-.19,0-.28,1.81-.18,3.63-.36,5.44-.54,0-.15,0-.31-.01-.46h-6.3c0-.13,0-.27,0-.4h3.71c.01-.14.03-.27.04-.41-1.2-.27-2.4-.54-3.6-.81v.14h8.64s0-.08,0-.11c-2.58-.21-5.16-.42-7.75-.63,0-.04,0-.07,0-.11,2.69-.12,5.39-.25,8.08-.37,0-.2,0-.4-.01-.61h-9.63c0-.17,0-.33,0-.5h8.37c0-.1,0-.2,0-.3-1.16-.05-2.32-.1-3.47-.15,0-.11,0-.21,0-.32h5.93c0-.11,0-.21-.01-.32h-11.21v-.24c3.72-.28,7.45-.56,11.18-.84,0-.11,0-.22-.01-.33h-9.28c0-.12-.01-.25-.02-.37,2.54-.19,5.09-.37,7.63-.56l-.02-.39h-8.18c2.05-.36,4.55-.84,7.06-1.25.92-.15,1.87-.16,2.8-.23,0-.08,0-.16,0-.24h-6.98c0-.12,0-.24,0-.36h5.9c0-.05,0-.1,0-.16-2.01-.15-4.02-.3-6.03-.45,0-.14.01-.28.02-.42h7.87c0-.16,0-.32,0-.48h-7.73c0-.16,0-.33,0-.49h7.07c0-.06,0-.12,0-.19-2.39-.2-4.78-.41-7.17-.61,0-.09,0-.18,0-.27h5.58c0-.05,0-.11,0-.16-1.35-.08-2.71-.15-4.06-.23,0-.1,0-.19,0-.29h6.62c0-.06,0-.11,0-.17-2.66-.18-5.32-.37-7.98-.55,0-.1,0-.21.01-.31h8.33v-.36h-4.36c0-.08,0-.15.01-.23.8-.15,1.61-.3,2.55-.47h-6.26c0-.17,0-.34,0-.52h8.4c0-.2,0-.4,0-.59h-6.4c0-.16.01-.32.02-.49h6.72c0-.13,0-.27,0-.4h-7.05c0-.07,0-.15,0-.22,2.06-.17,4.12-.33,6.18-.5l-.02-.3h-7.48c0-.07-.01-.15-.02-.22,1.3-.18,2.59-.37,3.89-.55,0-.13,0-.27.01-.4-.89-.2-1.79-.4-2.68-.6,0-.08.01-.16.02-.24,2.55-.29,5.09-.57,7.64-.86v-.24h-6.87c0-.11,0-.23,0-.34h3.56c0-.07,0-.15,0-.22-1.07-.05-2.14-.11-3.21-.16,0-.1,0-.19,0-.29h6.84c0-.13,0-.26.01-.39-2.23-.13-4.45-.26-6.68-.38,0-.09,0-.19,0-.28h6.38c0-.09,0-.17,0-.26-1.69-.16-3.37-.33-5.06-.49,0-.09,0-.18,0-.27h5.79c0-.12,0-.23,0-.35h-7.05l-.03-.45c2.46-.14,4.92-.28,7.38-.42l-.03-.3c-2.46-.12-4.91-.24-7.37-.36,0-.15.01-.3.02-.45,2.44-.12,4.88-.25,7.32-.37,0-.08.02-.15.03-.23-2.25-.14-4.5-.28-6.75-.42v-.35c1.56-.11,3.12-.21,4.67-.32.02-.05.03-.11.05-.16-1.18-.22-2.36-.44-3.54-.65.01-.07.02-.14.03-.21.7-.05,1.4-.11,2.1-.16.01-.09.03-.17.04-.26-.46-.18-.92-.35-1.33-.51.09-.24.29-.49.25-.71-.05-.28-.28-.54-.44-.8.28.18.6.32.85.54.85.78,1.68,1.58,2.76,2.61-2.06-2.97-4.02-5.54-5.71-8.29-1.9-3.09-3.55-6.33-5.31-9.5ZM22.24,80.76c0-.2,0-.4,0-.6-.35-.08-.7-.23-1.05-.24-3.46-.1-6.92-.18-10.38-.26-1.74-.04-3.48-.14-5.2-.05-.61.03-1.2.57-1.8.88.08.14.16.28.24.42.4-.25.81-.51,1.15-.72.18.57.34,1.08.52,1.63.26-.51.45-.89.64-1.26.08.03.16.05.24.08-.05.45-.1.89-.19,1.71,5.39-.54,10.6-1.07,15.82-1.59ZM12.52,82.87c0,.17,0,.34,0,.51,3.85,0,7.7.03,11.56-.01,2.56-.03,5.12-.23,7.68-.23.95,0,1.58-.12,1.64-1.17.05-1.03.24-2.24-1.22-2.4-2.94-.32-5.89-.52-8.83-.77-.01.14-.02.28-.03.42,1.87.14,3.74.21,5.59.45.93.12,1.92.94,2.72.75,1-.23,1.4.12,1.31.8-.07.53-.76,1.37-1.21,1.4-3.46.18-6.93.21-10.4.25-2.93.03-5.86,0-8.79,0ZM11.68,86.81h7c-.98-.52-1.72-.91-2.46-1.29.05-.11.1-.23.16-.34.52-.06,1.03-.11,1.55-.17-.01-.07-.02-.14-.03-.22-1.98.12-3.96.24-5.9.36-.09.49-.18.97-.31,1.66ZM29.49,85.15c-1.17.64-2.46,1.35-3.51,1.92,2.65.18,3.55-.33,3.51-1.92Z"/>
  <path class="cls-1" d="M18.5,26.02c.15,5.92.32,11.84.43,17.76.02,1.06.12,1.83,1.09,2.6,1.94,1.55,1.69,3.03-.33,4.45-.39.27-.65.98-.67,1.49-.09,3.79-.1,7.59-.17,11.39,0,.26-.39.51-.9,1.14,0-4.48.02-8.38-.03-12.29,0-.46-.26-1.2-.58-1.33-2.83-1.12-2.36-4.66.18-5.64.15-.06.26-.21.06-.04.32-6.71.62-13.13.93-19.54,0,0,0,0,0,0Z"/>
  <path class="cls-1" d="M23.13,24.97l-1.01-1.44c-.12,0-.24,0-.36.01v2.18c-.22-.35-.56-.67-.62-1.04-.27-1.63-.53-3.25-.58-4.92-.09-2.7-.58-5.38-.95-8.41.44.52.62.72.79.93.7,3.59,1.38,7.19,2.11,10.77.13.66.42,1.28.63,1.92Z"/>
</svg>